<svg width="68" height="34" viewBox="0 0 68 34" fill="none" xmlns="http://www.w3.org/2000/svg">
<g clip-path="url(#clip0_2627_7936)">
<path d="M34.0005 0C15.2229 0 0.000488281 7.61129 0.000488281 16.9999C0.000488281 26.3887 15.2229 33.9999 34.0005 33.9999C52.778 33.9999 68.0005 26.3886 68.0005 16.9999C68.0005 7.61116 52.778 0 34.0005 0ZM34.0005 31.3161C16.7051 31.3161 2.68443 24.9066 2.68443 16.9999C2.68443 9.09331 16.7052 2.6838 34.0005 2.6838C51.2959 2.6838 65.3166 9.09331 65.3166 16.9999C65.3166 24.9066 51.2957 31.3161 34.0005 31.3161ZM29.7127 14.0175V11.3332H39.3045V14.0175H35.8513V22.6667H33.1664V14.0175H29.7127ZM50.8824 11.3332V22.6669H48.1986L43.3307 15.92V22.6669H40.6468V11.3332H43.3306L48.1985 18.08V11.3332H50.8824ZM17.0386 22.6669V11.3332H19.7225L22.7044 15.92L25.6863 11.3332H28.3691V22.6669H25.6863V16.2562L23.6506 19.3854H21.7583L19.7225 16.2562V22.6669H17.0386Z" fill="black"/>
</g>
<defs>
<clipPath id="clip0_2627_7936">
<rect width="68" height="34" fill="white"/>
</clipPath>
</defs>
</svg>
