<svg width="23" height="32" viewBox="0 0 23 32" fill="none" xmlns="http://www.w3.org/2000/svg">
<path d="M4.34864 0.78125H14.0146C14.4989 0.781357 14.9633 0.980621 15.3057 1.33521L22.0753 8.34388C22.4178 8.69837 22.6103 9.17918 22.6104 9.68058V27.2505C22.6104 28.2533 22.2256 29.2151 21.5406 29.9242C20.8557 30.6334 19.9267 31.0318 18.958 31.0318H4.34864C3.37998 31.0318 2.45099 30.6334 1.76604 29.9242C1.08109 29.2151 0.696289 28.2533 0.696289 27.2505V4.56257C0.696289 3.5597 1.08109 2.59791 1.76604 1.88877C2.45099 1.17964 3.37998 0.78125 4.34864 0.78125V0.78125ZM14.3926 3.61724V7.39855C14.3926 7.89999 14.585 8.38088 14.9275 8.73545C15.27 9.09002 15.7344 9.28921 16.2188 9.28921H19.8711L14.3926 3.61724Z" fill="#F45500"/>
<path d="M5.29332 19.1974C5.13892 19.1974 5.01197 19.1528 4.91247 19.0636C4.8164 18.971 4.76836 18.8577 4.76836 18.7239C4.76836 18.5867 4.8164 18.4717 4.91247 18.3791C5.01197 18.2865 5.13892 18.2402 5.29332 18.2402C5.44429 18.2402 5.56781 18.2865 5.66388 18.3791C5.76338 18.4717 5.81313 18.5867 5.81313 18.7239C5.81313 18.8577 5.76338 18.971 5.66388 19.0636C5.56781 19.1528 5.44429 19.1974 5.29332 19.1974ZM7.47151 16.691C7.55729 16.5572 7.67566 16.4491 7.82663 16.3668C7.97759 16.2844 8.15429 16.2433 8.35673 16.2433C8.59347 16.2433 8.80791 16.3033 9.00006 16.4234C9.1922 16.5435 9.34316 16.715 9.45296 16.9381C9.56618 17.1611 9.6228 17.4201 9.6228 17.7152C9.6228 18.0103 9.56618 18.271 9.45296 18.4975C9.34316 18.7205 9.1922 18.8938 9.00006 19.0173C8.80791 19.1374 8.59347 19.1974 8.35673 19.1974C8.15772 19.1974 7.98102 19.1562 7.82663 19.0739C7.67566 18.9916 7.55729 18.8852 7.47151 18.7548V20.5253H6.59144V16.2844H7.47151V16.691ZM8.72728 17.7152C8.72728 17.4956 8.66552 17.3241 8.54201 17.2005C8.42192 17.0736 8.27267 17.0101 8.09425 17.0101C7.91926 17.0101 7.77001 17.0736 7.64649 17.2005C7.52641 17.3275 7.46636 17.5008 7.46636 17.7203C7.46636 17.9399 7.52641 18.1132 7.64649 18.2402C7.77001 18.3671 7.91926 18.4306 8.09425 18.4306C8.26923 18.4306 8.41849 18.3671 8.54201 18.2402C8.66552 18.1098 8.72728 17.9348 8.72728 17.7152ZM10.1669 17.7152C10.1669 17.4201 10.2217 17.1611 10.3315 16.9381C10.4448 16.715 10.5975 16.5435 10.7896 16.4234C10.9817 16.3033 11.1962 16.2433 11.4329 16.2433C11.6216 16.2433 11.7932 16.2827 11.9476 16.3616C12.1054 16.4405 12.2289 16.5469 12.3181 16.6807V15.3477H13.1982V19.1562H12.3181V18.7445C12.2358 18.8818 12.1174 18.9916 11.963 19.0739C11.8121 19.1562 11.6354 19.1974 11.4329 19.1974C11.1962 19.1974 10.9817 19.1374 10.7896 19.0173C10.5975 18.8938 10.4448 18.7205 10.3315 18.4975C10.2217 18.271 10.1669 18.0103 10.1669 17.7152ZM12.3181 17.7203C12.3181 17.5008 12.2564 17.3275 12.1329 17.2005C12.0128 17.0736 11.8652 17.0101 11.6903 17.0101C11.5153 17.0101 11.366 17.0736 11.2425 17.2005C11.1224 17.3241 11.0624 17.4956 11.0624 17.7152C11.0624 17.9348 11.1224 18.1098 11.2425 18.2402C11.366 18.3671 11.5153 18.4306 11.6903 18.4306C11.8652 18.4306 12.0128 18.3671 12.1329 18.2402C12.2564 18.1132 12.3181 17.9399 12.3181 17.7203ZM15.5333 17.0153H15.0598V19.1562H14.1797V17.0153H13.8606V16.2844H14.1797V16.2021C14.1797 15.8487 14.2809 15.5811 14.4834 15.3992C14.6858 15.2139 14.9826 15.1213 15.3737 15.1213C15.4389 15.1213 15.487 15.123 15.5179 15.1264V15.8727C15.3497 15.8624 15.2314 15.8864 15.1627 15.9448C15.0941 16.0031 15.0598 16.1077 15.0598 16.2587V16.2844H15.5333V17.0153Z" fill="white"/>
</svg>
