<svg width="14" height="13" viewBox="0 0 14 13" fill="none" xmlns="http://www.w3.org/2000/svg">
<path d="M13.1187 2.6443L7.11875 0.644299C7.04167 0.618567 6.95833 0.618567 6.88125 0.644299L0.88125 2.6443C0.806635 2.66921 0.741743 2.71695 0.695756 2.78077C0.649769 2.84459 0.625016 2.92126 0.625 2.99992V7.99992C0.625 8.09938 0.664509 8.19476 0.734835 8.26509C0.805161 8.33542 0.900544 8.37492 1 8.37492C1.09946 8.37492 1.19484 8.33542 1.26517 8.26509C1.33549 8.19476 1.375 8.09938 1.375 7.99992V3.51992L3.7925 4.32617C3.48764 4.77671 3.28106 5.28639 3.18619 5.82204C3.09133 6.35769 3.11031 6.90731 3.2419 7.43514C3.37349 7.96297 3.61474 8.45718 3.94995 8.88561C4.28516 9.31405 4.70682 9.6671 5.1875 9.9218C3.98438 10.3299 2.9375 11.1462 2.1875 12.2968C2.14439 12.3794 2.13355 12.475 2.1571 12.5652C2.18065 12.6553 2.23689 12.7334 2.31489 12.7843C2.39288 12.8353 2.48704 12.8554 2.57902 12.8407C2.67101 12.826 2.75423 12.7776 2.8125 12.7049C3.77938 11.2243 5.305 10.3749 7 10.3749C8.695 10.3749 10.2206 11.2243 11.1875 12.7049C11.2454 12.7791 11.3291 12.8289 11.422 12.8442C11.5149 12.8596 11.6101 12.8394 11.6888 12.7878C11.7676 12.7362 11.824 12.6568 11.8469 12.5655C11.8698 12.4742 11.8575 12.3776 11.8125 12.2949C11.0625 11.1462 10.0169 10.3299 8.8125 9.91992C9.29292 9.66494 9.71428 9.31169 10.0492 8.88313C10.3841 8.45457 10.625 7.96031 10.7563 7.43251C10.8876 6.9047 10.9063 6.35517 10.8112 5.81965C10.7161 5.28414 10.5094 4.77464 10.2044 4.3243L13.1187 3.35555C13.1933 3.3306 13.2582 3.28284 13.3041 3.21902C13.3501 3.1552 13.3748 3.07856 13.3748 2.99992C13.3748 2.92129 13.3501 2.84464 13.3041 2.78083C13.2582 2.71701 13.1933 2.66925 13.1187 2.6443ZM10.125 6.49992C10.1252 6.99788 10.0064 7.48868 9.77855 7.93143C9.55067 8.37418 9.22028 8.75607 8.81491 9.04526C8.40954 9.33446 7.94093 9.5226 7.44812 9.59401C6.95531 9.66542 6.45257 9.61802 5.98179 9.45577C5.51101 9.29352 5.08581 9.02112 4.74163 8.66126C4.39745 8.3014 4.14425 7.8645 4.00313 7.38696C3.862 6.90942 3.83704 6.40507 3.93032 5.91593C4.02359 5.42678 4.23241 4.96701 4.53937 4.57492L6.88125 5.35555C6.95833 5.38128 7.04167 5.38128 7.11875 5.35555L9.46062 4.57492C9.89176 5.12389 10.1258 5.8019 10.125 6.49992ZM7 4.60492L2.1875 2.99992L7 1.39492L11.8125 2.99992L7 4.60492Z" fill="black"/>
</svg>
