<svg width="22" height="25" viewBox="0 0 22 25" fill="none" xmlns="http://www.w3.org/2000/svg">
<path d="M20.6664 19.1C21.5254 19.7943 21.6682 21.0682 20.8459 21.8057C19.6458 22.882 18.244 23.7203 16.7145 24.2681C14.5546 25.0416 12.2235 25.2058 9.97647 24.7426C7.72947 24.2795 5.65328 23.2068 3.97533 21.6422C2.29738 20.0776 1.08239 18.0814 0.463461 15.8722C-0.155469 13.663 -0.154467 11.3261 0.466357 9.11748C1.08718 6.90884 2.30388 4.91365 3.98317 3.35048C5.66247 1.78731 7.73957 0.716458 9.98697 0.255219C11.5784 -0.0713925 13.2117 -0.0834025 14.7963 0.212725C15.8821 0.415635 16.422 1.57827 16.0487 2.61784L15.3082 4.67985C14.9349 5.71942 13.7792 6.224 12.675 6.19335C12.1928 6.17997 11.7085 6.22187 11.2316 6.31974C10.0973 6.55254 9.04892 7.09303 8.20133 7.882C7.35375 8.67097 6.73965 9.67799 6.42631 10.7928C6.11296 11.9075 6.11245 13.087 6.42484 14.202C6.73723 15.3171 7.35047 16.3246 8.19738 17.1143C9.04428 17.904 10.0922 18.4454 11.2263 18.6792C12.3604 18.9129 13.537 18.8301 14.6272 18.4397C15.0855 18.2755 15.5211 18.0597 15.9262 17.7977C16.8537 17.1979 18.1033 17.0286 18.9624 17.7229L20.6664 19.1Z" fill="#FF8A00"/>
</svg>
